<svg width="155" height="34" viewBox="0 0 155 34" fill="none" xmlns="http://www.w3.org/2000/svg">
<path d="M4.0479 22.056H11.5679V25H0.399902V2.75999H4.0479V22.056ZM30.7787 15.752C30.7787 16.4133 30.736 17.0107 30.6507 17.544H17.1787C17.2853 18.952 17.808 20.0827 18.7467 20.936C19.6853 21.7893 20.8373 22.216 22.2027 22.216C24.1653 22.216 25.552 21.3947 26.3627 19.752H30.2986C29.7653 21.3733 28.7947 22.7067 27.3867 23.752C26 24.776 24.272 25.288 22.2027 25.288C20.5173 25.288 19.0027 24.9147 17.6587 24.168C16.336 23.4 15.2907 22.3333 14.5227 20.968C13.776 19.5813 13.4027 17.9813 13.4027 16.168C13.4027 14.3547 13.7653 12.7653 14.4907 11.4C15.2373 10.0133 16.272 8.94669 17.5947 8.19999C18.9387 7.45329 20.4747 7.07999 22.2027 7.07999C23.8667 7.07999 25.3493 7.44269 26.6507 8.16798C27.952 8.89328 28.9653 9.91729 29.6907 11.24C30.416 12.5413 30.7787 14.0453 30.7787 15.752ZM26.9707 14.6C26.9493 13.256 26.4693 12.1787 25.5307 11.368C24.592 10.5573 23.4293 10.152 22.0427 10.152C20.784 10.152 19.7067 10.5573 18.8107 11.368C17.9147 12.1573 17.3813 13.2347 17.2107 14.6H26.9707ZM33.1527 16.104C33.1527 14.3333 33.5153 12.7653 34.2407 11.4C34.9873 10.0347 35.99 8.97869 37.2487 8.23199C38.5287 7.46399 39.9367 7.07999 41.4727 7.07999C42.8593 7.07999 44.0647 7.35729 45.0887 7.91199C46.134 8.44529 46.966 9.11728 47.5847 9.92799V7.36799H51.2647V25H47.5847V22.376C46.966 23.208 46.1233 23.9013 45.0567 24.456C43.99 25.0107 42.774 25.288 41.4087 25.288C39.894 25.288 38.5073 24.904 37.2487 24.136C35.99 23.3467 34.9873 22.2587 34.2407 20.872C33.5153 19.464 33.1527 17.8747 33.1527 16.104ZM47.5847 16.168C47.5847 14.952 47.3287 13.896 46.8167 13C46.326 12.104 45.6753 11.4213 44.8647 10.952C44.054 10.4827 43.1793 10.248 42.2407 10.248C41.302 10.248 40.4273 10.4827 39.6167 10.952C38.806 11.4 38.1447 12.072 37.6327 12.968C37.142 13.8427 36.8967 14.888 36.8967 16.104C36.8967 17.32 37.142 18.3867 37.6327 19.304C38.1447 20.2213 38.806 20.9253 39.6167 21.416C40.4487 21.8853 41.3233 22.12 42.2407 22.12C43.1793 22.12 44.054 21.8853 44.8647 21.416C45.6753 20.9467 46.326 20.264 46.8167 19.368C47.3287 18.4507 47.5847 17.384 47.5847 16.168ZM59.7042 9.92799C60.2375 9.03199 60.9415 8.33869 61.8162 7.84799C62.7122 7.33599 63.7682 7.07999 64.9842 7.07999V10.856H64.0562C62.6268 10.856 61.5388 11.2187 60.7922 11.944C60.0668 12.6693 59.7042 13.928 59.7042 15.72V25H56.0562V7.36799H59.7042V9.92799ZM77.2334 7.07999C78.6201 7.07999 79.8574 7.36799 80.9454 7.94399C82.0547 8.51999 82.9187 9.37329 83.5374 10.504C84.1561 11.6347 84.4654 13 84.4654 14.6V25H80.8494V15.144C80.8494 13.5653 80.4547 12.36 79.6654 11.528C78.8761 10.6747 77.7987 10.248 76.4334 10.248C75.0681 10.248 73.9801 10.6747 73.1694 11.528C72.3801 12.36 71.9854 13.5653 71.9854 15.144V25H68.3374V7.36799H71.9854V9.38399C72.5827 8.65869 73.3401 8.09329 74.2574 7.68799C75.1961 7.28269 76.1881 7.07999 77.2334 7.07999ZM96.3827 2.75999C98.7509 2.75999 100.82 3.21869 102.591 4.13599C104.383 5.03199 105.759 6.33329 106.719 8.03999C107.7 9.72529 108.191 11.6987 108.191 13.96C108.191 16.2213 107.7 18.184 106.719 19.848C105.759 21.512 104.383 22.792 102.591 23.688C100.82 24.5627 98.7509 25 96.3827 25H89.1187V2.75999H96.3827ZM96.3827 22.024C98.9849 22.024 100.98 21.32 102.367 19.912C103.753 18.504 104.447 16.52 104.447 13.96C104.447 11.3787 103.753 9.36269 102.367 7.91199C100.98 6.46129 98.9849 5.73599 96.3827 5.73599H92.7667V22.024H96.3827ZM113.662 5.03199C113.001 5.03199 112.446 4.80799 111.998 4.35999C111.55 3.91199 111.326 3.35729 111.326 2.69599C111.326 2.03469 111.55 1.47999 111.998 1.03199C112.446 0.583985 113.001 0.359985 113.662 0.359985C114.302 0.359985 114.846 0.583985 115.294 1.03199C115.742 1.47999 115.966 2.03469 115.966 2.69599C115.966 3.35729 115.742 3.91199 115.294 4.35999C114.846 4.80799 114.302 5.03199 113.662 5.03199ZM115.454 7.36799V25H111.806V7.36799H115.454ZM127.348 7.07999C128.713 7.07999 129.918 7.35729 130.964 7.91199C132.03 8.44529 132.862 9.11728 133.46 9.92799V7.36799H137.14V25.288C137.14 26.9093 136.798 28.3493 136.116 29.608C135.433 30.888 134.441 31.8907 133.14 32.616C131.86 33.3413 130.324 33.704 128.532 33.704C126.142 33.704 124.158 33.1387 122.58 32.008C121.001 30.8987 120.105 29.384 119.892 27.464H123.508C123.785 28.3813 124.372 29.1173 125.268 29.672C126.185 30.248 127.273 30.536 128.532 30.536C130.004 30.536 131.188 30.088 132.084 29.192C133.001 28.296 133.46 26.9947 133.46 25.288V22.344C132.841 23.176 131.998 23.88 130.932 24.456C129.886 25.0107 128.692 25.288 127.348 25.288C125.812 25.288 124.404 24.904 123.124 24.136C121.865 23.3467 120.862 22.2587 120.116 20.872C119.39 19.464 119.028 17.8747 119.028 16.104C119.028 14.3333 119.39 12.7653 120.116 11.4C120.862 10.0347 121.865 8.97869 123.124 8.23199C124.404 7.46399 125.812 7.07999 127.348 7.07999ZM133.46 16.168C133.46 14.952 133.204 13.896 132.692 13C132.201 12.104 131.55 11.4213 130.74 10.952C129.929 10.4827 129.054 10.248 128.116 10.248C127.177 10.248 126.302 10.4827 125.492 10.952C124.681 11.4 124.02 12.072 123.508 12.968C123.017 13.8427 122.772 14.888 122.772 16.104C122.772 17.32 123.017 18.3867 123.508 19.304C124.02 20.2213 124.681 20.9253 125.492 21.416C126.324 21.8853 127.198 22.12 128.116 22.12C129.054 22.12 129.929 21.8853 130.74 21.416C131.55 20.9467 132.201 20.264 132.692 19.368C133.204 18.4507 133.46 17.384 133.46 16.168ZM143.787 5.03199C143.126 5.03199 142.571 4.80799 142.123 4.35999C141.675 3.91199 141.451 3.35729 141.451 2.69599C141.451 2.03469 141.675 1.47999 142.123 1.03199C142.571 0.583985 143.126 0.359985 143.787 0.359985C144.427 0.359985 144.971 0.583985 145.419 1.03199C145.867 1.47999 146.091 2.03469 146.091 2.69599C146.091 3.35729 145.867 3.91199 145.419 4.35999C144.971 4.80799 144.427 5.03199 143.787 5.03199ZM145.579 7.36799V25H141.931V7.36799H145.579ZM151.841 25.224C151.179 25.224 150.625 25 150.177 24.552C149.729 24.104 149.505 23.5493 149.505 22.888C149.505 22.2267 149.729 21.672 150.177 21.224C150.625 20.776 151.179 20.552 151.841 20.552C152.481 20.552 153.025 20.776 153.473 21.224C153.921 21.672 154.145 22.2267 154.145 22.888C154.145 23.5493 153.921 24.104 153.473 24.552C153.025 25 152.481 25.224 151.841 25.224Z" fill="#103D76"/>
</svg>
